<svg width="75.000000" height="16.601990" viewBox="0 0 75 16.602" fill="none" xmlns="http://www.w3.org/2000/svg" xmlns:xlink="http://www.w3.org/1999/xlink">
	<desc>
			Created with Pixso.
	</desc>
	<defs/>
	<g style="mix-blend-mode:normal">
		<path id="BOOKLY" d="M38.7485 11.214C37.4765 12.474 35.9285 13.104 34.1045 13.104Q32.6497 13.104 31.4315 12.5671Q30.3588 12.0942 29.4695 11.205Q28.6015 10.337 28.1302 9.29028Q27.5705 8.04715 27.5705 6.552Q27.5705 5.05685 28.1302 3.81372Q28.6015 2.76703 29.4695 1.89899Q30.3588 1.00977 31.4315 0.536926Q32.6497 0 34.1045 0C35.9285 0 37.4765 0.632996 38.7485 1.89899C40.0205 3.16501 40.6565 4.716 40.6565 6.552C40.6565 8.388 40.0205 9.94199 38.7485 11.214ZM21.0256 15.5689Q19.8042 16.104 18.3484 16.104Q16.8937 16.104 15.6755 15.5671Q14.6027 15.0942 13.7135 14.205Q12.8455 13.337 12.3742 12.2903Q11.8145 11.0471 11.8145 9.552Q11.8145 8.05685 12.3742 6.81372Q12.8455 5.76703 13.7135 4.89899Q14.6027 4.00977 15.6755 3.53693Q16.8937 3 18.3484 3Q19.7927 3 21.0062 3.52911Q22.0916 4.00238 22.9925 4.89899Q23.8727 5.77512 24.3469 6.83322Q24.9005 8.06857 24.9005 9.552Q24.9005 11.025 24.3547 12.2559Q23.88 13.3265 22.9925 14.214Q22.0997 15.0984 21.0256 15.5689ZM7.28436 15.4154Q6.42627 15.852 5.34601 15.852L0 15.852L0 3.25198L4.96802 3.25198Q6.03552 3.25198 6.88025 3.68576L6.88025 3.68576Q7.31744 3.91028 7.69501 4.25098Q8.18585 4.69391 8.45905 5.24481Q8.802 5.93634 8.802 6.79797Q8.802 7.63837 8.4599 8.30249Q8.16449 8.87592 7.61401 9.31796Q8.4292 9.7876 8.84308 10.4928Q9.27002 11.2201 9.27002 12.198Q9.27002 13.1118 8.90106 13.8381Q8.62317 14.3852 8.13599 14.826Q7.74176 15.1827 7.28436 15.4154ZM46.3859 9.94797L46.3859 15.852L43.9019 15.852L43.9019 3.25198L46.3859 3.25198L46.3859 8.81396L50.7059 3.25198L53.5679 3.25198L48.9059 9.37198L53.7479 15.852L50.8859 15.852L46.3859 9.94797ZM63.762 13.476L63.762 15.852L56.472 15.852L56.472 3.25198L58.956 3.25198L58.956 13.476L63.762 13.476ZM70.68 10.938L70.68 15.852L68.214 15.852L68.214 10.938L63.912 3.25198L66.72 3.25198L69.456 8.50797L72.192 3.25198L75 3.25198L70.68 10.938Z" clip-rule="evenodd" fill="#FFFFFF" fill-opacity="1.000000" fill-rule="evenodd"/>
	</g>
	<g style="mix-blend-mode:normal">
		<path id="Path 72" d="" fill="#D8D8D8" fill-opacity="0" fill-rule="nonzero"/>
		<path id="Path 72" d="M29.83 15.85L38.83 15.85" stroke="#FFFFFF" stroke-opacity="1.000000" stroke-width="1.500000"/>
	</g>
</svg>
